<svg width="21" height="20" viewBox="0 0 21 20" fill="none" xmlns="http://www.w3.org/2000/svg">
<path d="M13.8124 14.6527C15.3736 14.8378 16.9472 14.6354 18.3974 14.0751C17.9225 14.9763 17.2996 15.7961 16.5509 16.4989C15.3939 17.5849 13.9759 18.3546 12.4339 18.7333C10.8918 19.112 9.27802 19.087 7.74849 18.6607C6.21896 18.2344 4.82555 17.4212 3.70288 16.2999C2.58022 15.1785 1.76627 13.787 1.33959 12.2599C0.912905 10.7327 0.887882 9.12149 1.26693 7.58186C1.64599 6.04224 2.41632 4.62619 3.50361 3.47065C4.24139 2.68656 5.10817 2.0404 6.06268 1.55808C5.4614 3.04111 5.23873 4.65961 5.42741 6.26563C5.67837 8.40174 6.64238 10.391 8.1637 11.9125C9.685 13.4341 11.6749 14.3993 13.8124 14.6527Z" stroke="black" stroke-width="2"/>
</svg>
