<svg width="21" height="20" viewBox="0 0 21 20" fill="none" xmlns="http://www.w3.org/2000/svg">
<path d="M19.8807 12.4568C19.8136 12.4104 19.734 12.3855 19.6524 12.3855C19.5708 12.3855 19.4911 12.4104 19.424 12.4568C17.7801 13.463 15.8447 13.8867 13.9301 13.6597C12.0155 13.4326 10.2333 12.5681 8.87086 11.2055C7.50845 9.84284 6.64528 8.06157 6.42058 6.14895C6.19588 4.23633 6.62274 2.30387 7.63231 0.663236C7.69185 0.595155 7.72655 0.50894 7.73076 0.418641C7.73496 0.328343 7.70842 0.239283 7.65547 0.165977C7.60251 0.0926697 7.52626 0.039437 7.43914 0.0149533C7.35201 -0.00953033 7.25916 -0.00382157 7.1757 0.0311493C5.49613 0.555895 3.9805 1.50454 2.77532 2.78538C1.57013 4.06622 0.716153 5.63594 0.295928 7.34281C-0.124297 9.04967 -0.0965549 10.8359 0.376473 12.529C0.849501 14.222 1.75182 15.7645 2.9962 17.0074C4.24058 18.2503 5.78494 19.1515 7.47999 19.624C9.17505 20.0964 10.9635 20.1241 12.6724 19.7044C14.3813 19.2847 15.9529 18.4317 17.2353 17.228C18.5177 16.0243 19.4674 14.5105 19.9928 12.8329C20.008 12.7659 20.0057 12.6961 19.9861 12.6302C19.9664 12.5643 19.9301 12.5046 19.8807 12.4568Z" fill="#EEEEF2"/>
</svg>
